<svg xmlns="http://www.w3.org/2000/svg" width="1254" height="1254" viewBox="0 0 1254 1254">
  <defs>
    <linearGradient id="bg" x1="0" y1="0" x2="1" y2="1">
      <stop offset="0%" stop-color="#081810"/>
      <stop offset="100%" stop-color="#0e2d20"/>
    </linearGradient>
    <radialGradient id="glow" cx="50%" cy="0%" r="85%">
      <stop offset="0%" stop-color="#294a33" stop-opacity="0.25"/>
      <stop offset="70%" stop-color="#294a33" stop-opacity="0"/>
      <stop offset="100%" stop-color="#294a33" stop-opacity="0"/>
    </radialGradient>
    <linearGradient id="gold" x1="0" y1="0" x2="0" y2="1">
      <stop offset="0%" stop-color="#efecd9"/>
      <stop offset="45%" stop-color="#eadba6"/>
      <stop offset="100%" stop-color="#d7b158"/>
    </linearGradient>
    <linearGradient id="leaf" x1="0" y1="0" x2="1" y2="1">
      <stop offset="0%" stop-color="#cfd47f"/>
      <stop offset="100%" stop-color="#879948"/>
    </linearGradient>
    <filter id="shadow" x="-20%" y="-20%" width="140%" height="140%">
      <feDropShadow dx="0" dy="12" stdDeviation="12" flood-color="#05100b" flood-opacity="0.28"/>
    </filter>
  </defs>

  <rect x="0" y="0" width="1254" height="1254" rx="170" fill="url(#bg)"/>
  <rect x="0" y="0" width="1254" height="1254" rx="170" fill="url(#glow)"/>

  <g filter="url(#shadow)">
    <text x="470" y="700" text-anchor="middle" font-size="560" font-family="Georgia, 'Times New Roman', serif" fill="url(#gold)">s</text>
    <text x="725" y="700" text-anchor="middle" font-size="560" font-family="Georgia, 'Times New Roman', serif" fill="url(#gold)">y</text>
  </g>

  <g transform="translate(725 355)" filter="url(#shadow)">
    <path d="M 0 32 C 28 -58, 104 -142, 183 -146 C 147 -118, 120 -84, 95 -48 C 72 -13, 42 26, 6 54 C 8 39, 7 21, 0 32 Z" fill="url(#leaf)"/>
    <path d="M -5 44 C -21 -18, -69 -92, -121 -98 C -101 -83, -85 -63, -71 -39 C -55 -14, -35 14, -7 40 C -8 34, -7 30, -5 44 Z" fill="url(#leaf)" opacity="0.95"/>
    <path d="M 2 72 C 18 6, 66 -67, 135 -125" stroke="#22321e" stroke-width="7" stroke-linecap="round" fill="none"/>
    <path d="M -6 64 C -28 7, -63 -42, -103 -82" stroke="#324327" stroke-width="6" stroke-linecap="round" fill="none"/>
  </g>

  <g fill="none" stroke="url(#gold)" stroke-linecap="round" stroke-linejoin="round" filter="url(#shadow)">
    <path d="M 632 780 C 636 805, 639 817, 631 840" stroke-width="14"/>
    <path d="M 631 840 C 570 842, 490 851, 405 898" stroke-width="14"/>
    <path d="M 631 840 C 550 834, 438 845, 281 924" stroke-width="14"/>
    <path d="M 631 840 C 525 857, 423 893, 330 1000" stroke-width="14"/>
    <path d="M 631 840 C 615 919, 591 995, 526 1066" stroke-width="14"/>
    <path d="M 631 840 C 649 922, 654 1010, 628 1098" stroke-width="14"/>
    <path d="M 631 840 C 681 897, 724 952, 735 1017" stroke-width="14"/>
    <path d="M 631 840 C 725 844, 816 883, 905 992" stroke-width="14"/>
    <path d="M 631 840 C 737 838, 858 850, 989 918" stroke-width="14"/>
    <path d="M 631 840 C 748 861, 897 863, 1082 915" stroke-width="14"/>

    <path d="M 405 898 C 381 930, 363 972, 357 1016" stroke-width="10"/>
    <path d="M 281 924 C 257 955, 242 994, 235 1033" stroke-width="10"/>
    <path d="M 330 1000 C 317 1032, 311 1070, 314 1111" stroke-width="10"/>
    <path d="M 526 1066 C 503 1087, 465 1115, 397 1148" stroke-width="10"/>
    <path d="M 628 1098 C 651 1138, 677 1169, 715 1211" stroke-width="10"/>
    <path d="M 735 1017 C 766 1054, 805 1090, 867 1159" stroke-width="10"/>
    <path d="M 905 992 C 947 1027, 990 1083, 1039 1139" stroke-width="10"/>
    <path d="M 989 918 C 1024 961, 1054 1007, 1078 1087" stroke-width="10"/>
    <path d="M 1082 915 C 1136 949, 1178 995, 1211 1083" stroke-width="10"/>
  </g>
</svg>
